<svg width="93" height="32" viewBox="0 0 93 32" fill="none" xmlns="http://www.w3.org/2000/svg">
<path opacity="0.8" d="M13.5104 0L0 8.9535V8.97036L10.4471 15.8901L13.5104 13.8564V0Z" fill="#E5B001"/>
<path opacity="0.8" d="M0 22.8348L13.5104 31.7797V17.9234L10.4471 15.8897L0 22.8094V22.8348Z" fill="#E5B001"/>
<path opacity="0.8" d="M28.3457 9.17304L14.8354 0.219543V14.0759L17.9071 16.1096L28.3457 9.1899V9.17304Z" fill="#E5B001"/>
<path opacity="0.8" d="M14.8354 32.0003L28.3457 23.0467V23.0298L17.9071 16.11L14.8354 18.1438V32.0003Z" fill="#E5B001"/>
<path opacity="0.5" d="M0 8.97028V22.8098L10.4471 15.89L0 8.97028Z" fill="#C49412"/>
<path opacity="0.5" d="M28.3461 23.0293V9.18976L17.9072 16.1095L28.3461 23.0293Z" fill="#C49412"/>
<path d="M47.7142 24.2881C46.4822 24.2881 45.3942 24.0801 44.4502 23.6641C43.5062 23.2321 42.7622 22.6241 42.2182 21.8401C41.6742 21.0401 41.3942 20.0721 41.3782 18.9361H44.6182C44.6502 19.7201 44.9302 20.3841 45.4582 20.9281C46.0022 21.4561 46.7462 21.7201 47.6902 21.7201C48.5062 21.7201 49.1542 21.5281 49.6342 21.1441C50.1142 20.7441 50.3542 20.2161 50.3542 19.5601C50.3542 18.8721 50.1382 18.3361 49.7062 17.9521C49.2902 17.5681 48.7302 17.2561 48.0262 17.0161C47.3222 16.7761 46.5702 16.5201 45.7702 16.2481C44.4742 15.8001 43.4822 15.2241 42.7942 14.5201C42.1222 13.8161 41.7862 12.8801 41.7862 11.7121C41.7702 10.7201 42.0022 9.87212 42.4822 9.16812C42.9782 8.44812 43.6502 7.89612 44.4982 7.51212C45.3462 7.11212 46.3222 6.91212 47.4262 6.91212C48.5462 6.91212 49.5302 7.11212 50.3782 7.51212C51.2422 7.91212 51.9142 8.47212 52.3942 9.19212C52.8902 9.91212 53.1542 10.7681 53.1862 11.7601H49.8982C49.8822 11.1681 49.6502 10.6481 49.2022 10.2001C48.7702 9.73612 48.1622 9.50412 47.3782 9.50412C46.7062 9.48812 46.1382 9.65612 45.6742 10.0081C45.2262 10.3441 45.0022 10.8401 45.0022 11.4961C45.0022 12.0561 45.1782 12.5041 45.5302 12.8401C45.8822 13.1601 46.3622 13.4321 46.9702 13.6561C47.5782 13.8801 48.2742 14.1201 49.0582 14.3761C49.8902 14.6641 50.6502 15.0001 51.3382 15.3841C52.0262 15.7681 52.5782 16.2801 52.9942 16.9201C53.4102 17.5441 53.6182 18.3521 53.6182 19.3441C53.6182 20.2241 53.3942 21.0401 52.9462 21.7921C52.4982 22.5441 51.8342 23.1521 50.9542 23.6161C50.0742 24.0641 48.9942 24.2881 47.7142 24.2881ZM54.7385 24.0001L60.8825 7.20012H64.3385L70.4825 24.0001H67.2185L65.8745 20.1121H59.3225L57.9545 24.0001H54.7385ZM60.1625 17.7121H65.0345L62.5865 10.7281L60.1625 17.7121ZM72.1666 24.0001V7.20012H75.2386V24.0001H72.1666ZM82.3588 24.0001V18.0241L76.7188 7.20012H80.1988L83.9188 14.9521L87.6148 7.20012H91.0468L85.4308 18.0241V24.0001H82.3588Z" fill="white"/>
</svg>
