<svg width="20" height="20" viewBox="0 0 20 20" fill="none" xmlns="http://www.w3.org/2000/svg">
<path d="M16.875 5.00031H4.375C4.20924 5.00031 4.05027 4.93446 3.93306 4.81725C3.81585 4.70004 3.75 4.54107 3.75 4.37531C3.75 4.20954 3.81585 4.05057 3.93306 3.93336C4.05027 3.81615 4.20924 3.75031 4.375 3.75031H15C15.1658 3.75031 15.3247 3.68446 15.4419 3.56725C15.5592 3.45004 15.625 3.29107 15.625 3.12531C15.625 2.95954 15.5592 2.80057 15.4419 2.68336C15.3247 2.56615 15.1658 2.50031 15 2.50031H4.375C3.87772 2.50031 3.40081 2.69785 3.04917 3.04948C2.69754 3.40111 2.5 3.87802 2.5 4.37531V14.3753C2.5 14.8726 2.69754 15.3495 3.04917 15.7011C3.40081 16.0528 3.87772 16.2503 4.375 16.2503H16.875C17.2065 16.2503 17.5245 16.1186 17.7589 15.8842C17.9933 15.6498 18.125 15.3318 18.125 15.0003V6.25031C18.125 5.91878 17.9933 5.60084 17.7589 5.36642C17.5245 5.132 17.2065 5.00031 16.875 5.00031ZM16.875 15.0003H4.375C4.20924 15.0003 4.05027 14.9345 3.93306 14.8172C3.81585 14.7 3.75 14.5411 3.75 14.3753V6.14327C3.95068 6.21441 4.16208 6.25062 4.375 6.25031H16.875V15.0003ZM13.125 10.3128C13.125 10.1274 13.18 9.94613 13.283 9.79196C13.386 9.63779 13.5324 9.51763 13.7037 9.44667C13.875 9.37571 14.0635 9.35715 14.2454 9.39332C14.4273 9.42949 14.5943 9.51878 14.7254 9.64989C14.8565 9.781 14.9458 9.94805 14.982 10.1299C15.0182 10.3118 14.9996 10.5003 14.9286 10.6716C14.8577 10.8429 14.7375 10.9893 14.5833 11.0923C14.4292 11.1953 14.2479 11.2503 14.0625 11.2503C13.8139 11.2503 13.5754 11.1515 13.3996 10.9757C13.2238 10.7999 13.125 10.5614 13.125 10.3128Z" fill="white"/>
</svg>
