<svg width="20" height="20" viewBox="0 0 20 20" fill="none" xmlns="http://www.w3.org/2000/svg">
<path d="M18.0407 16.5628C16.8508 14.5058 15.0172 13.0308 12.8774 12.3315C13.9358 11.7014 14.7582 10.7413 15.2182 9.59857C15.6781 8.45585 15.7503 7.19373 15.4235 6.00604C15.0968 4.81835 14.3892 3.77076 13.4094 3.02414C12.4296 2.27753 11.2318 1.87317 10 1.87317C8.76821 1.87317 7.57044 2.27753 6.59067 3.02414C5.6109 3.77076 4.90331 4.81835 4.57654 6.00604C4.24978 7.19373 4.32193 8.45585 4.78189 9.59857C5.24186 10.7413 6.06422 11.7014 7.12268 12.3315C4.98284 13.03 3.14925 14.505 1.9594 16.5628C1.91577 16.6339 1.88683 16.7131 1.87429 16.7956C1.86174 16.8781 1.86585 16.9623 1.88638 17.0432C1.9069 17.1241 1.94341 17.2001 1.99377 17.2666C2.04413 17.3332 2.10731 17.389 2.17958 17.4307C2.25185 17.4725 2.33175 17.4993 2.41457 17.5097C2.49738 17.5201 2.58143 17.5137 2.66176 17.4911C2.74209 17.4685 2.81708 17.43 2.88228 17.3779C2.94749 17.3258 3.00161 17.2611 3.04143 17.1878C4.51331 14.644 7.11487 13.1253 10 13.1253C12.8852 13.1253 15.4867 14.644 16.9586 17.1878C16.9985 17.2611 17.0526 17.3258 17.1178 17.3779C17.183 17.43 17.258 17.4685 17.3383 17.4911C17.4186 17.5137 17.5027 17.5201 17.5855 17.5097C17.6683 17.4993 17.7482 17.4725 17.8205 17.4307C17.8927 17.389 17.9559 17.3332 18.0063 17.2666C18.0566 17.2001 18.0932 17.1241 18.1137 17.0432C18.1342 16.9623 18.1383 16.8781 18.1258 16.7956C18.1132 16.7131 18.0843 16.6339 18.0407 16.5628ZM5.62503 7.50029C5.62503 6.635 5.88162 5.78914 6.36235 5.06967C6.84308 4.35021 7.52636 3.78945 8.32579 3.45832C9.12522 3.12719 10.0049 3.04055 10.8535 3.20936C11.7022 3.37817 12.4818 3.79485 13.0936 4.4067C13.7055 5.01856 14.1222 5.79811 14.291 6.64677C14.4598 7.49544 14.3731 8.37511 14.042 9.17453C13.7109 9.97396 13.1501 10.6572 12.4306 11.138C11.7112 11.6187 10.8653 11.8753 10 11.8753C8.84009 11.8741 7.72801 11.4127 6.90781 10.5925C6.0876 9.77231 5.62627 8.66024 5.62503 7.50029Z" fill="white"/>
</svg>
