<svg width="20" height="20" viewBox="0 0 20 20" fill="none" xmlns="http://www.w3.org/2000/svg">
<path d="M9.16026 12.3378C9.99791 11.7802 10.6339 10.9677 10.9741 10.0207C11.3143 9.07361 11.3407 8.04221 11.0494 7.07899C10.7581 6.11576 10.1646 5.27185 9.35653 4.67206C8.54851 4.07226 7.56891 3.74841 6.5626 3.74841C5.55629 3.74841 4.57669 4.07226 3.76867 4.67206C2.96065 5.27185 2.3671 6.11576 2.0758 7.07899C1.78449 8.04221 1.8109 9.07361 2.15111 10.0207C2.49133 10.9677 3.12729 11.7802 3.96494 12.3378C2.4497 12.8963 1.15565 13.9297 0.275881 15.2839C0.229643 15.3526 0.197527 15.4299 0.181398 15.5111C0.165269 15.5923 0.165449 15.676 0.181929 15.7572C0.198409 15.8383 0.230858 15.9154 0.277392 15.9839C0.323926 16.0525 0.383616 16.111 0.452992 16.1563C0.522368 16.2015 0.600047 16.2326 0.681512 16.2475C0.762978 16.2625 0.846606 16.2611 0.927534 16.2435C1.00846 16.2258 1.08508 16.1923 1.15293 16.1448C1.22078 16.0973 1.2785 16.0367 1.32276 15.9667C1.89025 15.0939 2.66678 14.3767 3.58185 13.8801C4.49691 13.3836 5.52151 13.1236 6.5626 13.1236C7.60369 13.1236 8.62829 13.3836 9.54335 13.8801C10.4584 14.3767 11.235 15.0939 11.8024 15.9667C11.8941 16.103 12.0357 16.1977 12.1966 16.2303C12.3576 16.263 12.5249 16.231 12.6624 16.1413C12.8 16.0516 12.8967 15.9114 12.9317 15.7509C12.9666 15.5905 12.9371 15.4227 12.8493 15.2839C11.9695 13.9297 10.6755 12.8963 9.16026 12.3378ZM3.1251 8.43781C3.1251 7.75794 3.32671 7.09334 3.70442 6.52804C4.08214 5.96275 4.619 5.52216 5.24713 5.26198C5.87525 5.0018 6.56641 4.93373 7.23322 5.06637C7.90003 5.199 8.51254 5.52639 8.99328 6.00714C9.47402 6.48788 9.80141 7.10038 9.93405 7.76719C10.0667 8.434 9.99861 9.12517 9.73844 9.75329C9.47826 10.3814 9.03767 10.9183 8.47237 11.296C7.90708 11.6737 7.24247 11.8753 6.5626 11.8753C5.65124 11.8743 4.77749 11.5118 4.13306 10.8674C3.48863 10.2229 3.12613 9.34918 3.1251 8.43781ZM19.5423 16.1488C19.4035 16.2393 19.2344 16.271 19.0722 16.2368C18.91 16.2027 18.768 16.1055 18.6774 15.9667C18.1106 15.0934 17.3342 14.3758 16.4189 13.8795C15.5037 13.3832 14.4788 13.1239 13.4376 13.1253C13.2718 13.1253 13.1129 13.0595 12.9957 12.9423C12.8784 12.825 12.8126 12.6661 12.8126 12.5003C12.8126 12.3346 12.8784 12.1756 12.9957 12.0584C13.1129 11.9412 13.2718 11.8753 13.4376 11.8753C13.9438 11.8748 14.4437 11.7626 14.9015 11.5465C15.3593 11.3304 15.7637 11.0159 16.0859 10.6255C16.4081 10.235 16.64 9.77815 16.7652 9.28764C16.8903 8.79713 16.9056 8.28503 16.8099 7.78793C16.7142 7.29083 16.5098 6.82101 16.2115 6.41203C15.9132 6.00305 15.5282 5.66501 15.0841 5.42206C14.64 5.17911 14.1477 5.03725 13.6424 5.00662C13.1371 4.97598 12.6313 5.05733 12.161 5.24485C12.0844 5.27799 12.0018 5.29543 11.9183 5.29613C11.8348 5.29684 11.752 5.2808 11.6748 5.24896C11.5975 5.21711 11.5275 5.17012 11.4688 5.11074C11.41 5.05137 11.3638 4.98083 11.3327 4.90328C11.3017 4.82573 11.2866 4.74274 11.2881 4.65924C11.2897 4.57573 11.3081 4.49338 11.342 4.41707C11.376 4.34076 11.4249 4.27203 11.4858 4.21494C11.5468 4.15785 11.6186 4.11356 11.697 4.08469C12.7731 3.65551 13.9701 3.64007 15.0569 4.04134C16.1438 4.44261 17.0435 5.23216 17.5826 6.25767C18.1217 7.28319 18.2619 8.472 17.9761 9.59478C17.6904 10.7176 16.999 11.6947 16.0353 12.3378C17.5505 12.8963 18.8445 13.9297 19.7243 15.2839C19.8148 15.4227 19.8465 15.5918 19.8124 15.754C19.7783 15.9162 19.6811 16.0582 19.5423 16.1488Z" fill="white"/>
</svg>
