<svg width="20" height="20" viewBox="0 0 20 20" fill="none" xmlns="http://www.w3.org/2000/svg">
<path d="M9.9999 6.2503C9.25822 6.2503 8.5332 6.47023 7.91652 6.88229C7.29983 7.29435 6.81918 7.88001 6.53536 8.56524C6.25153 9.25046 6.17727 10.0045 6.32196 10.7319C6.46665 11.4593 6.82381 12.1275 7.34825 12.652C7.8727 13.1764 8.54089 13.5336 9.26832 13.6782C9.99574 13.8229 10.7497 13.7487 11.435 13.4648C12.1202 13.181 12.7059 12.7004 13.1179 12.0837C13.53 11.467 13.7499 10.742 13.7499 10.0003C13.7489 9.00606 13.3535 8.05283 12.6504 7.34979C11.9474 6.64676 10.9941 6.25133 9.9999 6.2503ZM9.9999 12.5003C9.50545 12.5003 9.0221 12.3537 8.61098 12.079C8.19986 11.8043 7.87942 11.4138 7.69021 10.957C7.50099 10.5002 7.45148 9.99753 7.54794 9.51258C7.6444 9.02762 7.88251 8.58216 8.23214 8.23253C8.58177 7.8829 9.02723 7.6448 9.51218 7.54834C9.99713 7.45187 10.4998 7.50138 10.9566 7.6906C11.4134 7.87982 11.8039 8.20025 12.0786 8.61138C12.3533 9.0225 12.4999 9.50585 12.4999 10.0003C12.4999 10.6633 12.2365 11.2992 11.7677 11.7681C11.2988 12.2369 10.6629 12.5003 9.9999 12.5003ZM18.589 8.37608C18.5716 8.28807 18.5354 8.20484 18.483 8.13204C18.4305 8.05925 18.363 7.99859 18.2851 7.95421L15.9546 6.62608L15.9452 3.99952C15.9449 3.90906 15.925 3.81974 15.8868 3.73773C15.8487 3.65572 15.7932 3.58298 15.7241 3.52452C14.8788 2.80944 13.9053 2.26145 12.8554 1.90968C12.7727 1.88169 12.6851 1.87133 12.5981 1.87927C12.5112 1.88721 12.4269 1.91327 12.3507 1.95577L9.9999 3.26983L7.64678 1.95343C7.57049 1.91069 7.48609 1.88443 7.39902 1.87636C7.31195 1.86828 7.22416 1.87857 7.14131 1.90655C6.09221 2.26089 5.11982 2.81098 4.27569 3.52764C4.20675 3.58602 4.15129 3.65864 4.11313 3.7405C4.07496 3.82237 4.05499 3.91154 4.05459 4.00186L4.04287 6.63077L1.7124 7.95889C1.63444 8.00328 1.56694 8.06393 1.5145 8.13673C1.46206 8.20953 1.42591 8.29276 1.4085 8.38077C1.19521 9.45255 1.19521 10.5559 1.4085 11.6276C1.42591 11.7157 1.46206 11.7989 1.5145 11.8717C1.56694 11.9445 1.63444 12.0051 1.7124 12.0495L4.04287 13.3776L4.05225 16.0042C4.05253 16.0947 4.07245 16.184 4.11062 16.266C4.14879 16.348 4.20431 16.4207 4.27334 16.4792C5.11871 17.1943 6.09221 17.7423 7.14209 18.0941C7.22477 18.122 7.31239 18.1324 7.39932 18.1245C7.48624 18.1165 7.57054 18.0905 7.64678 18.048L9.9999 16.7308L12.353 18.0472C12.4462 18.0991 12.5511 18.126 12.6577 18.1253C12.726 18.1253 12.7938 18.1142 12.8585 18.0925C13.9075 17.7386 14.8799 17.1891 15.7241 16.473C15.7931 16.4146 15.8485 16.342 15.8867 16.2601C15.9249 16.1782 15.9448 16.0891 15.9452 15.9987L15.9569 13.3698L18.2874 12.0417C18.3654 11.9973 18.4329 11.9367 18.4853 11.8639C18.5378 11.7911 18.5739 11.7078 18.5913 11.6198C18.8034 10.5489 18.8026 9.4467 18.589 8.37608ZM17.4171 11.1034L15.1851 12.373C15.0873 12.4286 15.0063 12.5095 14.9507 12.6073C14.9054 12.6855 14.8577 12.7683 14.8093 12.8464C14.7473 12.9449 14.7142 13.0589 14.714 13.1753L14.7022 15.6948C14.1023 16.166 13.4339 16.5427 12.7202 16.812L10.4687 15.5573C10.3752 15.5056 10.27 15.4787 10.1632 15.4792H10.1483C10.0538 15.4792 9.9585 15.4792 9.86397 15.4792C9.75216 15.4764 9.64162 15.5034 9.54365 15.5573L7.29053 16.8151C6.5753 16.5479 5.90508 16.173 5.30303 15.7034L5.29444 13.1878C5.29405 13.0712 5.26103 12.957 5.19912 12.8581C5.15069 12.78 5.10303 12.7019 5.0585 12.6191C5.00328 12.5197 4.92232 12.4372 4.82412 12.38L2.58975 11.1073C2.47412 10.3759 2.47412 9.63092 2.58975 8.89952L4.81787 7.62764C4.91567 7.57204 4.99664 7.49106 5.05225 7.39327C5.09756 7.31514 5.14522 7.23233 5.19365 7.15421C5.25566 7.05569 5.28869 6.94171 5.28897 6.8253L5.30069 4.30577C5.90063 3.83463 6.56901 3.45789 7.28272 3.18858L9.53115 4.44327C9.62901 4.49751 9.73963 4.52449 9.85147 4.52139C9.946 4.52139 10.0413 4.52139 10.1358 4.52139C10.2476 4.52419 10.3582 4.49723 10.4562 4.44327L12.7093 3.18546C13.4245 3.4527 14.0947 3.8276 14.6968 4.29718L14.7054 6.8128C14.7058 6.92944 14.7388 7.04364 14.8007 7.14249C14.8491 7.22061 14.8968 7.29874 14.9413 7.38155C14.9965 7.48086 15.0775 7.56344 15.1757 7.62061L17.4101 8.89327C17.5272 9.62523 17.5285 10.3711 17.414 11.1034H17.4171Z" fill="white"/>
</svg>
