<svg width="16" height="17" viewBox="0 0 16 17" fill="none" xmlns="http://www.w3.org/2000/svg">
<path d="M15.1336 7.49095L8.8836 1.24095C8.6492 1.00671 8.33139 0.875122 8.00001 0.875122C7.66863 0.875122 7.35081 1.00671 7.11641 1.24095L0.866414 7.49095C0.749777 7.60672 0.657319 7.74452 0.594417 7.89635C0.531515 8.04817 0.499423 8.21099 0.500008 8.37532V15.8753C0.500008 16.0411 0.565856 16.2001 0.683066 16.3173C0.800276 16.4345 0.959247 16.5003 1.12501 16.5003H6.12501C6.29077 16.5003 6.44974 16.4345 6.56695 16.3173C6.68416 16.2001 6.75001 16.0411 6.75001 15.8753V11.5003H9.25001V15.8753C9.25001 16.0411 9.31586 16.2001 9.43307 16.3173C9.55028 16.4345 9.70925 16.5003 9.87501 16.5003H14.875C15.0408 16.5003 15.1997 16.4345 15.317 16.3173C15.4342 16.2001 15.5 16.0411 15.5 15.8753V8.37532C15.5006 8.21099 15.4685 8.04817 15.4056 7.89635C15.3427 7.74452 15.2502 7.60672 15.1336 7.49095ZM14.25 15.2503H10.5V10.8753C10.5 10.7096 10.4342 10.5506 10.3169 10.4334C10.1997 10.3162 10.0408 10.2503 9.87501 10.2503H6.12501C5.95925 10.2503 5.80028 10.3162 5.68307 10.4334C5.56586 10.5506 5.50001 10.7096 5.50001 10.8753V15.2503H1.75001V8.37532L8.00001 2.12532L14.25 8.37532V15.2503Z" fill="white"/>
</svg>
