<svg width="20" height="20" viewBox="0 0 20 20" fill="none" xmlns="http://www.w3.org/2000/svg">
<path d="M16.875 5.00031H13.75C13.75 4.00574 13.3549 3.05192 12.6517 2.34865C11.9484 1.64539 10.9946 1.25031 10 1.25031C9.00544 1.25031 8.05161 1.64539 7.34835 2.34865C6.64509 3.05192 6.25 4.00574 6.25 5.00031H3.125C2.79348 5.00031 2.47554 5.132 2.24112 5.36642C2.0067 5.60084 1.875 5.91878 1.875 6.25031V15.6253C1.875 15.9568 2.0067 16.2748 2.24112 16.5092C2.47554 16.7436 2.79348 16.8753 3.125 16.8753H16.875C17.2065 16.8753 17.5245 16.7436 17.7589 16.5092C17.9933 16.2748 18.125 15.9568 18.125 15.6253V6.25031C18.125 5.91878 17.9933 5.60084 17.7589 5.36642C17.5245 5.132 17.2065 5.00031 16.875 5.00031ZM10 2.50031C10.663 2.50031 11.2989 2.7637 11.7678 3.23254C12.2366 3.70138 12.5 4.33726 12.5 5.00031H7.5C7.5 4.33726 7.76339 3.70138 8.23223 3.23254C8.70107 2.7637 9.33696 2.50031 10 2.50031ZM16.875 15.6253H3.125V6.25031H16.875V15.6253Z" fill="white"/>
</svg>
