<svg width="18" height="18" viewBox="0 0 18 18" fill="none" xmlns="http://www.w3.org/2000/svg">
<path d="M16.9422 16.0575L13.0305 12.1466C14.1643 10.7854 14.7297 9.03953 14.609 7.27214C14.4883 5.50475 13.6909 3.85192 12.3827 2.65748C11.0744 1.46304 9.35603 0.818951 7.58498 0.859201C5.81394 0.899451 4.12659 1.62094 2.87395 2.87358C1.62131 4.12622 0.899817 5.81357 0.859567 7.58462C0.819317 9.35566 1.46341 11.074 2.65785 12.3823C3.85229 13.6906 5.50512 14.488 7.2725 14.6086C9.03989 14.7293 10.7858 14.1639 12.1469 13.0302L16.0579 16.9419C16.1159 16.9999 16.1849 17.046 16.2607 17.0774C16.3366 17.1089 16.4179 17.125 16.5001 17.125C16.5822 17.125 16.6635 17.1089 16.7394 17.0774C16.8152 17.046 16.8842 16.9999 16.9422 16.9419C17.0003 16.8838 17.0464 16.8149 17.0778 16.739C17.1092 16.6631 17.1254 16.5818 17.1254 16.4997C17.1254 16.4176 17.1092 16.3363 17.0778 16.2604C17.0464 16.1845 17.0003 16.1156 16.9422 16.0575ZM2.12506 7.74969C2.12506 6.63717 2.45496 5.54963 3.07304 4.62461C3.69112 3.69958 4.56963 2.97861 5.59746 2.55287C6.6253 2.12712 7.7563 2.01573 8.84744 2.23277C9.93858 2.44981 10.9409 2.98554 11.7275 3.77221C12.5142 4.55888 13.0499 5.56116 13.267 6.65231C13.484 7.74345 13.3726 8.87445 12.9469 9.90228C12.5211 10.9301 11.8002 11.8086 10.8751 12.4267C9.95011 13.0448 8.86258 13.3747 7.75006 13.3747C6.25872 13.373 4.82894 12.7799 3.77441 11.7253C2.71987 10.6708 2.12671 9.24102 2.12506 7.74969Z" fill="#828EB0"/>
</svg>
