<svg width="20" height="20" viewBox="0 0 20 20" fill="none" xmlns="http://www.w3.org/2000/svg">
<path d="M18.75 10.0003C18.75 10.1661 18.6842 10.325 18.5669 10.4422C18.4497 10.5595 18.2908 10.6253 18.125 10.6253H16.0109L13.0594 16.53C13.0074 16.6338 12.9276 16.7211 12.8288 16.7821C12.73 16.8431 12.6161 16.8754 12.5 16.8753H12.4688C12.3475 16.8693 12.2307 16.8281 12.1324 16.7568C12.0342 16.6855 11.9589 16.5872 11.9156 16.4737L7.44922 4.74718L4.94375 10.2589C4.89411 10.3681 4.81409 10.4607 4.71324 10.5257C4.61239 10.5907 4.49497 10.6253 4.375 10.6253H1.875C1.70924 10.6253 1.55027 10.5595 1.43306 10.4422C1.31585 10.325 1.25 10.1661 1.25 10.0003C1.25 9.83454 1.31585 9.67557 1.43306 9.55836C1.55027 9.44115 1.70924 9.3753 1.875 9.3753H3.97266L6.93125 2.86671C6.98226 2.75439 7.06536 2.65968 7.17009 2.5945C7.27482 2.52933 7.39649 2.4966 7.51979 2.50044C7.64308 2.50428 7.76248 2.54452 7.86295 2.6161C7.96342 2.68767 8.04046 2.78737 8.08438 2.90265L12.5773 14.6995L15.0656 9.72218C15.1174 9.61805 15.1971 9.53042 15.296 9.46914C15.3948 9.40786 15.5087 9.37536 15.625 9.3753H18.125C18.2908 9.3753 18.4497 9.44115 18.5669 9.55836C18.6842 9.67557 18.75 9.83454 18.75 10.0003Z" fill="white"/>
</svg>
