<svg width="20" height="20" viewBox="0 0 20 20" fill="none" xmlns="http://www.w3.org/2000/svg">
<path d="M13.1248 17.5003C13.1248 17.6661 13.0589 17.825 12.9417 17.9422C12.8245 18.0595 12.6655 18.1253 12.4998 18.1253H7.49978C7.33402 18.1253 7.17505 18.0595 7.05784 17.9422C6.94063 17.825 6.87478 17.6661 6.87478 17.5003C6.87478 17.3345 6.94063 17.1756 7.05784 17.0584C7.17505 16.9412 7.33402 16.8753 7.49978 16.8753H12.4998C12.6655 16.8753 12.8245 16.9412 12.9417 17.0584C13.0589 17.1756 13.1248 17.3345 13.1248 17.5003ZM17.3318 15.0003C17.2234 15.1913 17.0659 15.35 16.8757 15.4598C16.6855 15.5697 16.4694 15.6268 16.2498 15.6253H3.74978C3.53004 15.625 3.31427 15.5668 3.1242 15.4565C2.93413 15.3463 2.77649 15.1878 2.66716 14.9972C2.55783 14.8066 2.50068 14.5906 2.50147 14.3708C2.50226 14.1511 2.56096 13.9354 2.67165 13.7456C3.10525 12.9987 3.74978 10.8862 3.74978 8.12531C3.74978 6.4677 4.40826 4.87799 5.58036 3.70589C6.75246 2.53379 8.34218 1.87531 9.99978 1.87531C11.6574 1.87531 13.2471 2.53379 14.4192 3.70589C15.5913 4.87799 16.2498 6.4677 16.2498 8.12531C16.2498 10.8855 16.8951 12.9987 17.3287 13.7456C17.4405 13.9357 17.4996 14.1521 17.5 14.3726C17.5004 14.5932 17.4421 14.8098 17.331 15.0003H17.3318ZM16.2498 14.3753C15.6459 13.3386 14.9998 10.9417 14.9998 8.12531C14.9998 6.79922 14.473 5.52745 13.5353 4.58977C12.5976 3.65209 11.3259 3.12531 9.99978 3.12531C8.6737 3.12531 7.40193 3.65209 6.46424 4.58977C5.52656 5.52745 4.99978 6.79922 4.99978 8.12531C4.99978 10.9425 4.3529 13.3394 3.74978 14.3753H16.2498Z" fill="white"/>
</svg>
