<svg width="32" height="32" viewBox="0 0 32 32" fill="none" xmlns="http://www.w3.org/2000/svg">
<circle cx="16" cy="16" r="16" fill="#F6F8FE"/>
<path opacity="0.8" d="M16.9161 15.9999L20.8099 19.8939C21.0634 20.1472 21.0634 20.5567 20.8099 20.81C20.5567 21.0633 20.1471 21.0633 19.8939 20.81L15.9999 16.916L12.1061 20.81C11.8527 21.0633 11.4433 21.0633 11.1901 20.81C10.9366 20.5567 10.9366 20.1472 11.1901 19.8939L15.0839 15.9999L11.1901 12.1059C10.9366 11.8526 10.9366 11.4431 11.1901 11.1898C11.3163 11.0635 11.4822 11 11.6481 11C11.8139 11 11.9798 11.0635 12.1061 11.1898L15.9999 15.0838L19.8939 11.1898C20.0202 11.0635 20.1861 11 20.3519 11C20.5178 11 20.6836 11.0635 20.8099 11.1898C21.0634 11.4431 21.0634 11.8526 20.8099 12.1059L16.9161 15.9999Z" fill="#828EB0"/>
</svg>
