<svg width="32" height="32" viewBox="0 0 32 32" fill="none" xmlns="http://www.w3.org/2000/svg">
<path d="M15.9998 2.66699C23.3638 2.66699 29.3332 8.63633 29.3332 16.0003C29.3332 23.3643 23.3638 29.3337 15.9998 29.3337C8.63584 29.3337 2.6665 23.3643 2.6665 16.0003C2.6665 8.63633 8.63584 2.66699 15.9998 2.66699ZM15.9998 5.33366C13.1709 5.33366 10.4578 6.45747 8.45737 8.45785C6.45698 10.4582 5.33317 13.1714 5.33317 16.0003C5.33317 18.8293 6.45698 21.5424 8.45737 23.5428C10.4578 25.5432 13.1709 26.667 15.9998 26.667C18.8288 26.667 21.5419 25.5432 23.5423 23.5428C25.5427 21.5424 26.6665 18.8293 26.6665 16.0003C26.6665 13.1714 25.5427 10.4582 23.5423 8.45785C21.5419 6.45747 18.8288 5.33366 15.9998 5.33366ZM15.9998 8.00033C16.3264 8.00037 16.6416 8.12027 16.8857 8.33728C17.1297 8.55429 17.2856 8.85332 17.3238 9.17766L17.3332 9.33366V15.4483L20.9425 19.0577C21.1816 19.2976 21.3205 19.6196 21.3308 19.9582C21.3412 20.2968 21.2222 20.6266 20.9982 20.8807C20.7741 21.1348 20.4618 21.2941 20.1245 21.3262C19.7873 21.3583 19.4505 21.2609 19.1825 21.0537L19.0572 20.943L15.0572 16.943C14.8499 16.7356 14.7169 16.4657 14.6785 16.175L14.6665 16.0003V9.33366C14.6665 8.98004 14.807 8.6409 15.057 8.39085C15.3071 8.1408 15.6462 8.00033 15.9998 8.00033Z" fill="#A0AAC5"/>
</svg>
