<svg width="16" height="16" viewBox="0 0 16 16" fill="none" xmlns="http://www.w3.org/2000/svg">
<g clip-path="url(#clip0_4059_2019)">
<path d="M14.3956 8.81625C14.2096 8.6731 13.993 8.57478 13.7628 8.52892C13.5325 8.48307 13.2948 8.49093 13.0681 8.55188L10.4531 9.15313C10.514 8.89612 10.5158 8.62868 10.4586 8.37084C10.4014 8.11301 10.2866 7.87147 10.1227 7.66433C9.95887 7.45719 9.75026 7.28983 9.51253 7.17477C9.2748 7.05972 9.01411 6.99997 8.75 7H5.62125C5.3585 6.99934 5.09822 7.05076 4.85546 7.15127C4.61269 7.25179 4.39225 7.39942 4.20687 7.58563L2.79312 9H1C0.734784 9 0.48043 9.10536 0.292893 9.29289C0.105357 9.48043 0 9.73478 0 10L0 12.5C0 12.7652 0.105357 13.0196 0.292893 13.2071C0.48043 13.3946 0.734784 13.5 1 13.5H7.5C7.54088 13.5 7.58161 13.495 7.62125 13.485L11.6213 12.485C11.6467 12.4789 11.6716 12.4706 11.6956 12.46L14.125 11.4263L14.1525 11.4138C14.386 11.2971 14.5859 11.1229 14.7335 10.9076C14.881 10.6923 14.9713 10.443 14.9959 10.1831C15.0205 9.9233 14.9785 9.66147 14.8739 9.42233C14.7693 9.18319 14.6056 8.97462 14.3981 8.81625H14.3956ZM1 10H2.5V12.5H1V10ZM13.7144 10.5131L11.3394 11.5244L7.4375 12.5H3.5V9.70688L4.91437 8.29313C5.0069 8.19986 5.11703 8.12592 5.23839 8.0756C5.35974 8.02528 5.48988 7.99958 5.62125 8H8.75C8.94891 8 9.13968 8.07902 9.28033 8.21967C9.42098 8.36032 9.5 8.55109 9.5 8.75C9.5 8.94891 9.42098 9.13968 9.28033 9.28033C9.13968 9.42098 8.94891 9.5 8.75 9.5H7C6.86739 9.5 6.74021 9.55268 6.64645 9.64645C6.55268 9.74022 6.5 9.86739 6.5 10C6.5 10.1326 6.55268 10.2598 6.64645 10.3536C6.74021 10.4473 6.86739 10.5 7 10.5H9C9.03763 10.4999 9.07514 10.4957 9.11187 10.4875L13.2994 9.52438L13.3188 9.51938C13.4466 9.48389 13.583 9.49693 13.7018 9.55599C13.8206 9.61505 13.9134 9.71596 13.9622 9.83929C14.0111 9.96263 14.0126 10.0997 13.9665 10.2241C13.9204 10.3485 13.8299 10.4514 13.7125 10.5131H13.7144ZM10.25 6C10.3735 6.00014 10.4969 5.99011 10.6187 5.97C10.7558 6.37722 11.0067 6.73666 11.3416 7.00584C11.6765 7.27502 12.0815 7.44268 12.5086 7.48899C12.9358 7.5353 13.3673 7.45833 13.7521 7.26718C14.1369 7.07603 14.459 6.77869 14.6801 6.41031C14.9013 6.04194 15.0124 5.61794 15.0002 5.18844C14.9881 4.75894 14.8532 4.3419 14.6115 3.98662C14.3699 3.63135 14.0315 3.3527 13.6365 3.18362C13.2415 3.01454 12.8064 2.9621 12.3825 3.0325C12.2505 2.64015 12.0128 2.29183 11.6956 2.02586C11.3784 1.75989 10.994 1.58659 10.5846 1.52502C10.1752 1.46346 9.75684 1.51602 9.37543 1.67692C8.99402 1.83782 8.66439 2.10082 8.42282 2.43698C8.18125 2.77314 8.0371 3.16943 8.00623 3.58224C7.97537 3.99504 8.05898 4.40836 8.24788 4.77671C8.43677 5.14506 8.72362 5.45415 9.07686 5.66998C9.43011 5.88581 9.83604 6.00001 10.25 6ZM14 5.25C14 5.49723 13.9267 5.7389 13.7893 5.94446C13.652 6.15003 13.4568 6.31024 13.2284 6.40485C12.9999 6.49946 12.7486 6.52421 12.5061 6.47598C12.2637 6.42775 12.0409 6.3087 11.8661 6.13388C11.6913 5.95907 11.5722 5.73634 11.524 5.49386C11.4758 5.25139 11.5005 5.00005 11.5952 4.77165C11.6898 4.54324 11.85 4.34802 12.0555 4.21066C12.2611 4.07331 12.5028 4 12.75 4C13.0815 4 13.3995 4.1317 13.6339 4.36612C13.8683 4.60054 14 4.91848 14 5.25ZM10.25 2.5C10.5227 2.50014 10.7879 2.58944 11.0051 2.7543C11.2223 2.91916 11.3796 3.15052 11.4531 3.41313C11.197 3.59331 10.9814 3.82496 10.82 4.09326C10.6585 4.36156 10.5549 4.6606 10.5156 4.97125C10.4283 4.9901 10.3393 4.99974 10.25 5C9.91848 5 9.60054 4.8683 9.36612 4.63388C9.1317 4.39946 9 4.08152 9 3.75C9 3.41848 9.1317 3.10054 9.36612 2.86612C9.60054 2.6317 9.91848 2.5 10.25 2.5Z" fill="white"/>
</g>
<defs>
<clipPath id="clip0_4059_2019">
<rect width="16" height="16" fill="white"/>
</clipPath>
</defs>
</svg>
