<svg width="32" height="32" viewBox="0 0 32 32" fill="none" xmlns="http://www.w3.org/2000/svg">
<path d="M28.8648 26.4995C26.9611 23.2082 24.0273 20.8482 20.6036 19.7295C22.2971 18.7213 23.6129 17.1851 24.3489 15.3567C25.0848 13.5284 25.2002 11.509 24.6774 9.60869C24.1546 7.70838 23.0224 6.03224 21.4548 4.83765C19.8872 3.64306 17.9708 2.99609 15.9998 2.99609C14.0289 2.99609 12.1125 3.64306 10.5449 4.83765C8.97725 6.03224 7.84509 7.70838 7.32228 9.60869C6.79946 11.509 6.91488 13.5284 7.65083 15.3567C8.38678 17.1851 9.70256 18.7213 11.3961 19.7295C7.97235 20.847 5.0386 23.207 3.13485 26.4995C3.06504 26.6133 3.01873 26.74 2.99866 26.872C2.97859 27.004 2.98517 27.1387 3.01801 27.2682C3.05084 27.3976 3.10927 27.5192 3.18984 27.6257C3.27041 27.7322 3.3715 27.8214 3.48713 27.8882C3.60277 27.955 3.73061 27.998 3.86311 28.0146C3.99561 28.0311 4.1301 28.021 4.25863 27.9848C4.38716 27.9486 4.50713 27.8869 4.61146 27.8036C4.71579 27.7202 4.80238 27.6168 4.8661 27.4995C7.2211 23.4295 11.3836 20.9995 15.9998 20.9995C20.6161 20.9995 24.7786 23.4295 27.1336 27.4995C27.1973 27.6168 27.2839 27.7202 27.3882 27.8036C27.4926 27.8869 27.6125 27.9486 27.7411 27.9848C27.8696 28.021 28.0041 28.0311 28.1366 28.0146C28.2691 27.998 28.3969 27.955 28.5126 27.8882C28.6282 27.8214 28.7293 27.7322 28.8099 27.6257C28.8904 27.5192 28.9489 27.3976 28.9817 27.2682C29.0145 27.1387 29.0211 27.004 29.001 26.872C28.981 26.74 28.9347 26.6133 28.8648 26.4995ZM8.99985 11.9995C8.99985 10.615 9.41039 9.26165 10.1796 8.1105C10.9487 6.95936 12.042 6.06215 13.3211 5.53234C14.6001 5.00252 16.0076 4.8639 17.3655 5.134C18.7233 5.40409 19.9706 6.07078 20.9496 7.04975C21.9286 8.02871 22.5952 9.276 22.8653 10.6339C23.1354 11.9917 22.9968 13.3992 22.467 14.6783C21.9372 15.9574 21.04 17.0506 19.8888 17.8198C18.7377 18.589 17.3843 18.9995 15.9998 18.9995C14.1439 18.9975 12.3646 18.2594 11.0523 16.9471C9.73997 15.6347 9.00184 13.8554 8.99985 11.9995Z" fill="#A0AAC5"/>
</svg>
